<svg width="36" height="36" viewBox="0 0 36 36" fill="none" xmlns="http://www.w3.org/2000/svg">
<g clip-path="url(#clip0_2632_10)">
<path d="M0.739746 36H12.9452C18.7329 36 23.4247 31.3081 23.4247 25.5205H11.2192C5.43156 25.5205 0.739746 30.2123 0.739746 36Z" fill="#F22BB2"/>
<path d="M1.28564 10.4795V25.8904C7.07329 25.8904 11.7651 21.1986 11.7651 15.411V0C5.97746 0 1.28564 4.69181 1.28564 10.4795Z" fill="#8C30F5"/>
<path d="M35.2604 0H23.0549C17.2673 0 12.5754 4.69181 12.5754 10.4795H24.7809C30.5686 10.4795 35.2604 5.78764 35.2604 0Z" fill="#FE9A22"/>
<path d="M35.2602 24.9041V9.49316C29.4726 9.49316 24.7808 14.185 24.7808 19.9726V35.3836C30.5684 35.3836 35.2602 30.6918 35.2602 24.9041Z" fill="#2EC5CE"/>
</g>
<defs>
<clipPath id="clip0_2632_10">
<rect width="36" height="36" fill="white"/>
</clipPath>
</defs>
</svg>
